<?xml version="1.0" encoding="UTF-8" standalone="no"?>
<svg
   xmlns:dc="http://purl.org/dc/elements/1.1/"
   xmlns:cc="http://creativecommons.org/ns#"
   xmlns:rdf="http://www.w3.org/1999/02/22-rdf-syntax-ns#"
   xmlns:svg="http://www.w3.org/2000/svg"
   xmlns="http://www.w3.org/2000/svg"
   id="svg3184"
   version="1.1"
   viewBox="0 0 12.699999 11.112501"
   height="42"
   width="48">
  <defs
     id="defs3178" />
  <metadata
     id="metadata3181">
    <rdf:RDF>
      <cc:Work
         rdf:about="">
        <dc:format>image/svg+xml</dc:format>
        <dc:type
           rdf:resource="http://purl.org/dc/dcmitype/StillImage" />
        <dc:title></dc:title>
      </cc:Work>
    </rdf:RDF>
  </metadata>
  <path
     style="fill:#808080;fill-opacity:1;stroke:none;stroke-width:1.13795578;stroke-linejoin:round;stroke-miterlimit:4;stroke-dasharray:none"
     d="m 3.7041669,1.8520837 c -0.5845013,0 -1.0583332,0.4738318 -1.0583333,1.0583331 -4e-7,0.5845016 0.4738317,1.0583339 1.0583333,1.058334 0.5845016,-10e-8 1.0583336,-0.4738324 1.0583333,-1.058334 C 4.7625,2.3259155 4.2886681,1.8520837 3.7041669,1.8520837 Z m 2.6458332,0 c -0.5845012,0 -1.0583331,0.4738318 -1.0583333,1.0583331 -3e-7,0.5845016 0.4738317,1.0583339 1.0583333,1.058334 0.5845016,0 1.0583337,-0.4738324 1.0583334,-1.058334 -2e-7,-0.5845013 -0.4738321,-1.0583331 -1.0583334,-1.0583331 z m 2.6458333,0 c -0.5845012,0 -1.0583331,0.4738318 -1.0583333,1.0583331 -3e-7,0.5845016 0.4738317,1.0583339 1.0583333,1.058334 0.5845015,-3e-7 1.0583336,-0.4738326 1.0583326,-1.058334 0,-0.5845011 -0.4738315,-1.0583329 -1.0583326,-1.0583331 z M 3.7041669,4.4979171 c -0.5845012,1e-7 -1.0583331,0.4738318 -1.0583333,1.058333 2e-7,0.5845012 0.4738321,1.0583329 1.0583333,1.058333 0.5845012,-1e-7 1.058333,-0.4738318 1.0583333,-1.058333 -3e-7,-0.5845012 -0.4738321,-1.0583329 -1.0583333,-1.058333 z m 2.6458332,0 c -0.5845012,1e-7 -1.0583331,0.4738318 -1.0583333,1.058333 2e-7,0.5845012 0.4738321,1.0583329 1.0583333,1.058333 0.5845012,0 1.0583332,-0.4738318 1.0583334,-1.058333 -2e-7,-0.5845012 -0.4738322,-1.058333 -1.0583334,-1.058333 z m 2.6458333,0 c -0.5845012,1e-7 -1.058333,0.4738318 -1.0583333,1.058333 3e-7,0.5845012 0.4738321,1.0583329 1.0583333,1.058333 0.5845011,-3e-7 1.0583326,-0.473832 1.0583326,-1.058333 0,-0.584501 -0.4738315,-1.0583327 -1.0583326,-1.058333 z M 3.7041669,7.1437504 c -0.5845012,1e-7 -1.0583331,0.4738318 -1.0583333,1.058333 2e-7,0.5845012 0.4738321,1.058333 1.0583333,1.058333 0.5845012,0 1.058333,-0.4738318 1.0583333,-1.058333 -3e-7,-0.5845012 -0.4738321,-1.0583329 -1.0583333,-1.058333 z m 2.6458332,0 c -0.5845012,1e-7 -1.0583331,0.4738318 -1.0583333,1.058333 2e-7,0.5845012 0.4738321,1.058333 1.0583333,1.058333 0.5845012,0 1.0583332,-0.4738317 1.0583334,-1.058333 -2e-7,-0.5845012 -0.4738322,-1.058333 -1.0583334,-1.058333 z m 2.6458333,0 c -0.5845012,1e-7 -1.058333,0.4738318 -1.0583333,1.058333 3e-7,0.5845012 0.4738321,1.058333 1.0583333,1.058333 0.5845011,-2e-7 1.0583326,-0.4738319 1.0583326,-1.058333 0,-0.584501 -0.4738315,-1.0583327 -1.0583326,-1.058333 z"
     id="use15855" />
</svg>
